# xmcd
#
# Track frame offsets:
#	150
#	15497
#	34688
#	56400
#	69693
#	90350
#	109794
#	128552
#	145588
#	162963
#
# Disc length: 2379 seconds
# Revision: 0
# Processed by: cddbd v1.5.2PL0 Copyright (c) Steve Scherf et al.
# Submitted via: dBpowerAMP V12.0
#
DISCID=7509490a
DTITLE=Barbara Nesbitt - Almost Home
DYEAR=2013
DGENRE=Americana
TTITLE0=Almost Home
TTITLE1=Into the Sun
TTITLE2=Like a Good Girl Should
TTITLE3=Sweetest Waste of Time
TTITLE4=Graceless
TTITLE5=Don't Think Much
TTITLE6=Weightless
TTITLE7=Never Been in Love
TTITLE8=Dancing on a Trap Door
TTITLE9=All the Way
EXTD=
EXTT0=
EXTT1=
EXTT2=
EXTT3=
EXTT4=
EXTT5=
EXTT6=
EXTT7=
EXTT8=
EXTT9=
PLAYORDER=
